<svg width="15" height="15" viewBox="0 0 15 15" fill="none" xmlns="http://www.w3.org/2000/svg">
<g clip-path="url(#clip0_3913_3085)">
<path d="M11.9951 4.25H2.66178C2.01745 4.25 1.49512 4.77233 1.49512 5.41667V10.0833C1.49512 10.7277 2.01745 11.25 2.66178 11.25H11.9951C12.6395 11.25 13.1618 10.7277 13.1618 10.0833V5.41667C13.1618 4.77233 12.6395 4.25 11.9951 4.25Z" stroke="white" stroke-width="1.16667" stroke-linecap="round" stroke-linejoin="round"/>
<path d="M7.3278 8.91536C7.97213 8.91536 8.49447 8.39303 8.49447 7.7487C8.49447 7.10437 7.97213 6.58203 7.3278 6.58203C6.68347 6.58203 6.16113 7.10437 6.16113 7.7487C6.16113 8.39303 6.68347 8.91536 7.3278 8.91536Z" stroke="white" stroke-width="1.16667" stroke-linecap="round" stroke-linejoin="round"/>
<path d="M3.82812 7.75H3.83396M10.8281 7.75H10.834" stroke="white" stroke-width="1.16667" stroke-linecap="round" stroke-linejoin="round"/>
</g>
<defs>
<clipPath id="clip0_3913_3085">
<rect width="14" height="14" fill="white" transform="translate(0.328125 0.75)"/>
</clipPath>
</defs>
</svg>
