<svg width="16" height="20" viewBox="0 0 16 20" fill="none" xmlns="http://www.w3.org/2000/svg">
<path fill-rule="evenodd" clip-rule="evenodd" d="M5.33797 1.805C5.33797 2.3046 5.74298 2.70961 6.24258 2.70961H9.76304C10.2626 2.70961 10.6676 2.3046 10.6676 1.805C10.6676 1.3054 10.2626 0.900391 9.76304 0.900391H6.24258C5.74298 0.900391 5.33797 1.3054 5.33797 1.805ZM14.8662 6.04532C14.5138 6.40383 14.4884 6.96497 14.7543 7.39153C15.4018 8.43009 15.8119 9.60807 15.949 10.8381C16.1188 12.3619 15.8628 13.9037 15.2103 15.2858C14.5578 16.668 13.5354 17.8344 12.2608 18.6508C10.9861 19.4671 9.51108 19.9003 8.0054 19.9004H7.98467C6.93475 19.899 5.89538 19.687 4.9259 19.2765C3.95642 18.8659 3.07581 18.2649 2.33437 17.5077C0.836954 15.9785 -0.0027417 13.906 6.72576e-06 11.7462C0.00275516 9.5864 0.847722 7.51616 2.34902 5.99091C3.85033 4.46567 5.88499 3.61037 8.0054 3.61317C9.56853 3.61317 11.0258 4.06894 12.2574 4.8583C12.6922 5.13703 13.2719 5.11093 13.6338 4.74235L14.0366 4.332C14.2032 4.16235 14.4291 4.06704 14.6646 4.06704C14.9002 4.06704 15.1261 4.16235 15.2926 4.332C15.4592 4.50165 15.5528 4.73175 15.5528 4.97167C15.5528 5.21159 15.4592 5.44168 15.2926 5.61133L14.8662 6.04532ZM8.00333 7.02578C8.4935 7.02578 8.89143 7.43111 8.89143 7.93039L8.88961 10.973C8.88945 11.2352 8.99225 11.4869 9.17587 11.674L11.2936 13.832C11.4525 14.0031 11.5396 14.2305 11.5364 14.466C11.5333 14.7015 11.4401 14.9265 11.2766 15.093C11.1132 15.2596 10.8925 15.3548 10.6613 15.3582C10.4301 15.3616 10.2067 15.273 10.0386 15.1113L7.37326 12.3975C7.20709 12.2277 7.11391 11.9976 7.11419 11.7578V7.93039C7.11419 7.43006 7.51212 7.02578 8.00333 7.02578ZM14.446 11.7568C14.446 12.6183 14.2794 13.4714 13.9557 14.2673C13.6321 15.0632 13.1576 15.7864 12.5596 16.3956C11.9615 17.0048 11.2515 17.488 10.4701 17.8177C9.6887 18.1474 8.85119 18.3171 8.0054 18.3171C7.15961 18.3171 6.3221 18.1474 5.5407 17.8177C4.75929 17.488 4.04928 17.0048 3.45122 16.3956C2.85316 15.7864 2.37874 15.0632 2.05508 14.2673C1.73141 13.4714 1.56482 12.6183 1.56482 11.7568C1.56482 10.0169 2.24338 8.34825 3.45122 7.11796C4.65906 5.88767 6.29725 5.1965 8.0054 5.1965C9.71355 5.1965 11.3517 5.88767 12.5596 7.11796C13.7674 8.34825 14.446 10.0169 14.446 11.7568Z" fill="currentFill"/>
</svg>
