<svg width="16" height="21" viewBox="0 0 16 21" fill="none" xmlns="http://www.w3.org/2000/svg">
<path fill-rule="evenodd" clip-rule="evenodd" d="M0 3.5C0 1.84315 1.34315 0.5 3 0.5H10.1716C10.9672 0.5 11.7303 0.81607 12.2929 1.37868L15.1213 4.20711C15.6839 4.76972 16 5.53278 16 6.32843V17.5C16 19.1569 14.6569 20.5 13 20.5H3C1.34315 20.5 0 19.1569 0 17.5V3.5ZM3 2.5C2.44772 2.5 2 2.94772 2 3.5V17.5C2 18.0523 2.44772 18.5 3 18.5H13C13.5523 18.5 14 18.0523 14 17.5V6.32843C14 6.06321 13.8946 5.80886 13.7071 5.62132L10.8787 2.79289C10.6911 2.60536 10.4368 2.5 10.1716 2.5H3ZM4 8.5C4 7.94772 4.44772 7.5 5 7.5H11C11.5523 7.5 12 7.94772 12 8.5C12 9.0523 11.5523 9.5 11 9.5H5C4.44772 9.5 4 9.0523 4 8.5ZM4 12.5C4 11.9477 4.44772 11.5 5 11.5H9C9.5523 11.5 10 11.9477 10 12.5C10 13.0523 9.5523 13.5 9 13.5H5C4.44772 13.5 4 13.0523 4 12.5Z" fill="#0D0D0D"/>
</svg>
